<svg width="33" height="33" viewBox="0 0 33 33" fill="none" xmlns="http://www.w3.org/2000/svg">
<g clip-path="url(#clip0)">
<path d="M32.4048 11.4408L16.9361 4.22211C16.6601 4.0932 16.3399 4.0932 16.064 4.22211L0.595185 11.4408C0.231603 11.6101 0 11.9746 0 12.3754V22.6879H2.06247V13.9947L4.12494 14.9572V24.7504C4.12494 25.2156 4.43611 25.6225 4.88526 25.7454L16.2291 28.8392C16.3177 28.8633 16.4083 28.8754 16.5 28.8754C16.5916 28.8754 16.6822 28.8633 16.7709 28.8392L28.1147 25.7454C28.5638 25.6225 28.875 25.2156 28.875 24.7504V14.9572L32.4048 13.31C32.7684 13.1408 33 12.7762 33 12.3754C33 11.9746 32.7684 11.6101 32.4048 11.4408ZM26.8125 23.9629L16.5 26.7746L6.18748 23.9629V15.9197L16.0639 20.5287C16.2019 20.5932 16.3509 20.6254 16.5 20.6254C16.649 20.6254 16.798 20.5932 16.936 20.5287L26.8124 15.9197C26.8125 15.9197 26.8125 23.9629 26.8125 23.9629ZM16.5 18.4562L3.46936 12.3754L16.5 6.29467L29.5306 12.3754L16.5 18.4562Z" fill="#969CBA"/>
</g>
<defs>
<clipPath id="clip0">
<rect width="33" height="33" fill="white"/>
</clipPath>
</defs>
</svg>
